<svg xmlns="http://www.w3.org/2000/svg" viewBox="0 0 100 100">
  <g stroke="#3E322B" stroke-width="2.5" stroke-linejoin="round">
    <path d="M50 74 Q48 84 49 92" fill="none" stroke-width="3" stroke-linecap="round"/>
    <path d="M49 84 Q38 82 34 73 Q46 72 50 82 Z" fill="#6B8F5E"/>
    <ellipse cx="50" cy="30" rx="11" ry="15" fill="#C4698F" transform="rotate(-4 50 30)"/>
    <ellipse cx="69" cy="43" rx="11" ry="15" fill="#C4698F" transform="rotate(66 69 43)"/>
    <ellipse cx="62" cy="65" rx="11" ry="15" fill="#C4698F" transform="rotate(140 62 65)"/>
    <ellipse cx="38" cy="66" rx="11" ry="15" fill="#C4698F" transform="rotate(-146 38 66)"/>
    <ellipse cx="31" cy="44" rx="11" ry="15" fill="#C4698F" transform="rotate(-70 31 44)"/>
    <circle cx="50" cy="49" r="12" fill="#E0A83C"/>
    <circle cx="47" cy="46" r="2" fill="#3E322B" stroke="none"/>
    <circle cx="54" cy="50" r="2" fill="#3E322B" stroke="none"/>
    <circle cx="49" cy="54" r="2" fill="#3E322B" stroke="none"/>
  </g>
</svg>